<?xml version="1.0" standalone="no"?>
<!DOCTYPE svg PUBLIC "-//W3C//DTD SVG 20010904//EN"
 "http://www.w3.org/TR/2001/REC-SVG-20010904/DTD/svg10.dtd">
<svg version="1.0" xmlns="http://www.w3.org/2000/svg"
 width="1672.000000pt" height="1640.000000pt" viewBox="0 0 1672.000000 1640.000000"
 preserveAspectRatio="xMidYMid meet">

<g transform="translate(0.000000,1640.000000) scale(0.100000,-0.100000)"
fill="#000000" stroke="none">
<path d="M7940 15979 c-436 -22 -1083 -116 -1490 -215 -471 -115 -853 -246
-1395 -479 -192 -83 -728 -367 -905 -480 -206 -132 -375 -247 -502 -341 -78
-59 -177 -132 -218 -163 -90 -67 -312 -256 -505 -431 -298 -270 -751 -771
-990 -1095 -337 -458 -670 -1034 -903 -1560 -232 -525 -419 -1131 -521 -1690
-50 -270 -61 -344 -86 -581 -39 -367 -48 -572 -42 -1051 4 -381 8 -471 31
-693 61 -585 153 -1032 326 -1584 100 -319 186 -550 277 -746 20 -41 55 -120
79 -174 77 -173 266 -534 377 -718 319 -531 612 -916 1111 -1461 399 -435
1171 -1046 1716 -1357 236 -135 262 -149 430 -233 317 -158 757 -347 925 -397
33 -10 119 -39 190 -63 349 -121 658 -197 1130 -277 599 -101 742 -113 1305
-113 224 0 477 5 565 12 337 26 749 82 1005 137 63 14 158 34 210 44 52 11
149 33 215 51 66 17 155 39 198 50 99 24 452 142 627 209 119 46 198 80 525
228 106 48 487 241 550 279 28 16 95 55 150 87 361 206 833 548 1210 877 171
148 578 551 717 709 277 314 631 792 835 1130 133 219 371 670 461 870 307
690 485 1301 606 2080 154 995 113 2027 -120 3014 -59 251 -71 296 -165 594
-150 476 -378 1008 -604 1408 -319 565 -564 916 -963 1382 -351 411 -772 800
-1247 1156 -202 151 -261 193 -475 331 -404 263 -895 515 -1355 697 -164 64
-593 216 -720 255 -149 45 -591 152 -696 168 -834 129 -1314 163 -1869 134z
m950 -3119 c0 -6 -21 -23 -47 -38 -163 -95 -352 -232 -469 -341 -195 -179
-275 -273 -414 -482 -44 -66 -90 -134 -102 -152 -13 -18 -24 -34 -26 -36 -1
-3 -28 22 -60 55 -146 154 -433 297 -676 339 -100 17 -347 20 -471 6 -147 -18
-396 -114 -516 -201 -37 -26 -70 -45 -75 -41 -5 3 -26 31 -46 61 -87 129 -179
202 -318 256 -68 26 -76 51 -28 87 68 52 263 170 370 223 135 68 236 101 438
145 152 33 160 34 390 34 252 -1 240 1 610 -80 52 -12 96 -15 145 -10 101 9
389 52 583 86 484 85 712 114 712 89z m1195 -109 c301 -55 502 -136 775 -317
162 -106 172 -124 83 -150 -75 -21 -106 -37 -172 -88 -59 -44 -147 -149 -178
-209 l-19 -38 -64 42 c-148 95 -314 166 -470 201 -138 30 -436 33 -568 4 -266
-57 -486 -175 -684 -364 -124 -119 -210 -233 -281 -371 -62 -121 -76 -161
-112 -321 -33 -147 -41 -283 -26 -440 20 -201 66 -415 96 -440 7 -6 61 -17
121 -25 407 -57 732 -213 1053 -504 114 -104 182 -185 286 -341 182 -273 279
-550 320 -910 19 -170 19 -249 0 -397 -71 -540 -319 -984 -733 -1314 -176
-141 -444 -293 -505 -287 -39 4 -44 22 -26 95 22 95 -23 310 -87 406 -30 45
-33 40 61 89 216 111 419 306 554 531 70 116 156 365 181 520 15 92 8 330 -14
447 -13 71 -64 217 -120 343 -103 233 -372 509 -620 636 -100 51 -386 144
-445 145 -43 1 -46 -1 -90 -59 -68 -90 -214 -238 -316 -320 -229 -185 -452
-300 -750 -385 -181 -52 -271 -64 -495 -64 -232 -1 -315 12 -566 84 -503 146
-975 556 -1199 1043 -44 96 -108 288 -148 444 l-32 128 0 302 c0 166 3 305 7
308 4 4 29 -11 55 -35 101 -89 254 -155 402 -173 l96 -12 1 -150 c2 -230 39
-384 143 -600 124 -258 316 -459 584 -613 119 -68 218 -105 353 -134 94 -19
139 -23 319 -23 194 0 218 2 315 27 177 45 373 139 530 256 94 69 270 245 270
269 0 10 -23 83 -51 163 -100 288 -126 455 -116 760 9 252 34 380 124 609 182
470 511 832 965 1065 137 69 328 130 578 182 126 26 426 19 615 -15z m-4562
-616 c95 -20 177 -67 245 -140 66 -71 105 -144 129 -240 14 -58 15 -79 5 -158
-24 -181 -114 -307 -278 -389 l-87 -43 -121 0 c-152 0 -222 21 -313 95 -80 64
-154 182 -178 282 -55 224 53 452 268 565 78 41 216 52 330 28z m5766 4 c36
-6 90 -22 118 -36 111 -52 217 -179 248 -298 18 -70 20 -202 4 -277 -32 -151
-151 -287 -297 -340 -85 -31 -272 -30 -362 1 -208 72 -322 256 -307 495 7 106
34 202 73 258 37 52 127 134 178 160 84 44 218 58 345 37z m397 -1026 c4 -26
7 -146 8 -268 1 -366 -51 -603 -196 -898 -93 -188 -185 -314 -373 -507 -115
-118 -139 -153 -189 -285 -137 -364 -388 -1038 -422 -1134 -12 -35 -23 14 -33
149 -23 291 -50 479 -91 641 -55 213 -211 572 -257 590 -56 21 -36 56 52 86
79 28 305 141 360 181 135 96 271 241 377 403 73 112 90 145 137 281 62 182
83 292 87 457 2 105 6 146 16 152 7 5 38 9 68 9 110 0 250 55 375 145 33 24
63 44 67 45 4 0 10 -21 14 -47z m-6036 -2115 c47 -22 97 -49 112 -60 15 -10
71 -37 125 -59 312 -131 544 -182 881 -195 l174 -7 -5 -31 c-2 -17 -12 -78
-22 -136 -20 -123 -16 -343 10 -475 77 -405 347 -766 724 -967 61 -33 63 -48
27 -141 -52 -132 -60 -175 -59 -315 1 -109 -1 -134 -13 -139 -31 -11 -236 94
-399 206 -281 191 -446 370 -620 673 -66 114 -136 293 -204 517 -32 108 -47
142 -74 170 -18 20 -60 70 -92 111 -32 41 -111 138 -175 215 -153 186 -265
324 -322 399 -25 33 -85 106 -132 161 -47 55 -86 106 -86 113 0 21 52 7 150
-40z m2780 -1880 c184 -44 325 -205 362 -412 28 -156 -61 -361 -201 -467 -134
-100 -377 -117 -536 -36 -65 33 -163 140 -201 221 -58 122 -68 230 -34 354 24
87 55 139 124 210 129 134 289 177 486 130z m3448 -2355 c1 -101 5 -183 7
-183 3 0 26 13 52 29 191 117 435 56 522 -128 26 -55 26 -59 31 -348 3 -161 3
-303 0 -315 -5 -22 -12 -23 -105 -29 -55 -3 -105 -4 -112 -2 -9 4 -13 76 -15
276 -3 267 -3 273 -28 321 -37 73 -64 89 -152 90 -95 1 -138 -23 -173 -98 -25
-52 -25 -56 -25 -320 l0 -267 -112 3 -113 3 -3 578 -2 578 112 -3 113 -3 3
-182z m-8215 133 c141 -27 263 -111 346 -239 64 -99 64 -100 -102 -111 -86 -6
-109 1 -142 43 -62 81 -152 119 -263 109 -241 -22 -360 -314 -231 -569 33 -66
75 -105 129 -119 22 -5 58 -15 80 -20 27 -7 60 -7 104 0 115 18 134 28 191
102 l46 58 92 0 c98 0 137 -14 137 -48 0 -29 -40 -94 -97 -159 -99 -113 -283
-180 -453 -166 -257 21 -423 147 -495 375 -37 118 -41 195 -16 303 32 135 63
199 138 278 41 44 138 112 189 133 100 42 228 53 347 30z m4420 -17 c156 -15
257 -79 309 -196 30 -68 23 -217 -14 -288 -41 -80 -93 -124 -165 -140 -18 -3
-35 -11 -39 -16 -5 -9 88 -175 198 -352 26 -43 46 -83 42 -88 -6 -10 -196 -11
-234 0 -19 5 -50 51 -140 206 l-115 200 -48 3 c-33 2 -47 -1 -47 -10 0 -7 -2
-101 -3 -208 l-2 -195 -112 -3 -113 -3 0 549 c0 302 3 551 6 555 8 8 357 -2
477 -14z m3177 -235 c69 -27 127 -70 175 -132 49 -62 62 -100 45 -131 -10 -19
-20 -21 -115 -21 -91 0 -107 3 -121 19 -64 76 -80 88 -125 95 -52 8 -118 -4
-154 -28 -29 -19 -60 -84 -76 -157 -20 -92 8 -209 63 -267 37 -37 81 -52 157
-52 47 0 57 4 85 33 18 17 37 41 43 52 10 16 26 21 103 26 147 10 173 -7 132
-88 -89 -172 -303 -261 -507 -208 -142 37 -204 89 -268 222 -36 77 -41 96 -45
176 -7 143 26 253 106 354 97 122 335 173 502 107z m-6559 10 c30 -9 71 -29
91 -45 20 -16 39 -29 41 -29 3 0 14 16 26 35 l20 35 105 0 105 0 3 -417 c2
-230 1 -424 -1 -430 -3 -14 -174 -19 -205 -7 -8 3 -20 21 -26 40 -6 19 -16 34
-20 34 -5 0 -34 -17 -64 -39 -73 -50 -128 -65 -219 -58 -102 8 -181 40 -238
97 -117 117 -166 311 -123 490 22 97 88 196 166 251 79 57 228 75 339 43z
m1101 -13 c36 -14 70 -37 96 -65 41 -44 76 -128 70 -168 -4 -28 -33 -33 -127
-23 -58 6 -67 11 -105 50 -81 83 -220 79 -241 -6 -5 -21 0 -34 22 -58 23 -26
44 -35 118 -52 170 -39 212 -57 264 -109 62 -62 85 -119 79 -200 -5 -70 -38
-125 -106 -177 -65 -50 -137 -67 -252 -60 -135 8 -209 36 -282 108 -69 68 -92
127 -63 159 14 15 31 20 74 20 113 0 132 -8 194 -80 14 -17 29 -20 101 -20
114 0 130 15 105 103 -11 42 -26 50 -104 61 -65 9 -180 43 -227 67 -102 52
-145 126 -135 233 11 120 58 181 167 219 71 25 79 26 190 23 78 -2 119 -9 162
-25z m858 -6 c89 -37 110 -41 110 -22 0 21 54 35 155 39 l80 3 0 -435 0 -434
-72 1 c-128 2 -121 -1 -143 44 -21 39 -22 40 -43 24 -12 -8 -51 -30 -87 -48
-119 -58 -271 -45 -385 33 -89 61 -164 212 -172 345 -14 224 110 431 284 475
70 17 201 6 273 -25z m2435 11 c19 -8 54 -33 79 -56 49 -46 50 -46 58 30 3 25
4 25 107 28 64 2 107 -1 111 -8 3 -5 5 -193 3 -418 -2 -224 -4 -413 -3 -419 0
-14 -105 -17 -175 -5 -35 6 -41 12 -50 44 -5 20 -13 38 -17 40 -4 2 -29 -14
-56 -34 -83 -64 -132 -81 -226 -76 -148 6 -259 84 -330 231 -44 88 -55 158
-46 280 6 75 14 107 39 160 55 116 148 193 264 217 56 12 199 3 242 -14z
m1203 1 c62 -22 105 -55 140 -106 55 -83 57 -99 57 -436 l0 -310 -105 0 -105
0 -5 280 c-5 267 -6 282 -27 315 -60 97 -224 117 -301 37 -59 -61 -63 -82 -62
-360 1 -139 1 -258 0 -264 0 -10 -28 -13 -105 -13 l-105 0 0 435 0 435 28 0
c15 0 58 -3 95 -7 59 -5 70 -9 80 -30 13 -29 41 -30 87 -1 61 38 109 48 200
44 47 -2 104 -11 128 -19z m2858 8 c27 -8 68 -30 91 -50 23 -19 45 -35 51 -35
5 0 14 18 21 39 7 24 19 42 31 46 24 8 182 -3 192 -13 9 -9 12 -811 3 -834 -9
-22 -60 -32 -132 -26 -49 4 -61 10 -83 36 -15 18 -30 32 -35 32 -5 0 -43 -17
-84 -37 -72 -36 -81 -38 -171 -38 -156 1 -256 51 -334 169 -48 72 -66 125 -73
211 -20 247 89 441 280 500 57 18 182 18 243 0z"/>
<path d="M7827 4559 c-5 -114 -4 -156 5 -167 10 -12 33 -14 118 -10 126 6 193
30 211 75 17 41 15 133 -3 168 -31 59 -49 67 -165 76 -59 4 -120 8 -134 8
l-26 1 -6 -151z"/>
<path d="M4540 4452 c-133 -73 -162 -284 -55 -410 41 -48 81 -65 155 -66 119
-2 193 66 220 198 16 80 7 141 -31 197 -50 72 -89 93 -178 97 -60 2 -83 -1
-111 -16z"/>
<path d="M6463 4459 c-68 -20 -122 -123 -122 -237 -1 -84 15 -132 62 -180 63
-66 133 -83 224 -57 72 21 122 70 146 144 21 66 21 112 1 182 -33 111 -98 159
-214 158 -36 0 -80 -5 -97 -10z"/>
<path d="M8915 4455 c-145 -51 -182 -297 -62 -416 42 -42 82 -60 147 -66 65
-6 115 14 167 69 64 67 90 190 58 274 -22 57 -78 122 -122 141 -42 17 -137 16
-188 -2z"/>
<path d="M13015 4457 c-53 -21 -73 -36 -90 -69 -10 -18 -25 -46 -34 -63 -25
-46 -21 -169 6 -221 42 -78 116 -124 203 -124 131 0 210 94 210 250 0 91 -42
179 -104 215 -48 28 -136 33 -191 12z"/>
</g>
</svg>
